<svg width="500" height="194" viewBox="0 0 500 194" fill="none" xmlns="http://www.w3.org/2000/svg">
<path d="M82.4817 61.6467C82.8254 60.8967 83.2577 60.2874 83.7733 59.8134C84.2837 59.329 85.0233 59.0842 85.9817 59.0842H96.8983C97.8567 59.0842 98.591 59.329 99.1067 59.8134C99.6171 60.2874 100.049 60.8967 100.398 61.6467L125.294 126.897C125.638 127.855 125.69 128.699 125.44 129.418C125.2 130.142 124.534 130.501 123.44 130.501H111.919C110.68 130.501 109.784 130.246 109.232 129.73C108.69 129.22 108.242 128.517 107.898 127.626L103.794 115.688H78.3775L74.2525 128.022C74.0442 128.72 73.716 129.308 73.2733 129.793C72.8254 130.267 72.1275 130.501 71.1692 130.501H60.1483C59.0494 130.501 58.3827 130.142 58.1483 129.418C57.9087 128.699 57.9608 127.855 58.2942 126.897L82.4817 61.6467ZM99.3567 103.334L92.8775 83.0634L91.0233 77.0842H90.815L88.9608 83.1676L82.4817 103.334H99.3567Z" fill="black"/>
<path d="M181.898 104.459C181.898 108.517 181.341 112.261 180.232 115.688C179.133 119.121 177.487 122.1 175.294 124.626C173.377 126.892 171.075 128.662 168.398 129.938C165.732 131.199 162.716 131.834 159.357 131.834C157.091 131.834 154.945 131.47 152.919 130.751C150.888 130.032 149.19 129.022 147.815 127.73V149.647C147.815 150.813 147.534 151.631 146.982 152.105C146.44 152.589 145.653 152.834 144.627 152.834H135.273C133.341 152.834 132.377 151.803 132.377 149.751V83.2717C132.377 81.3447 133.377 80.3759 135.377 80.3759H143.294C144.252 80.3759 144.987 80.5374 145.502 80.8551C146.013 81.1624 146.341 81.7249 146.482 82.5426L146.69 84.5009C148.065 82.9905 150.002 81.6832 152.502 80.5842C155.002 79.4905 157.591 78.9384 160.273 78.9384C163.841 78.9384 166.825 79.5426 169.232 80.7509C171.633 81.9488 173.653 83.4332 175.294 85.2092C177.555 87.6155 179.221 90.5322 180.294 93.9592C181.362 97.3915 181.898 100.892 181.898 104.459ZM165.836 105.397C165.836 103.063 165.627 101.058 165.211 99.3759C164.805 97.6988 164.221 96.3082 163.461 95.2092C162.57 93.8342 161.487 92.8759 160.211 92.3342C158.945 91.7822 157.627 91.5009 156.252 91.5009C154.752 91.5009 153.242 91.8655 151.732 92.5842C150.216 93.2926 148.909 94.1676 147.815 95.2092V116.084C148.784 116.991 150.008 117.767 151.482 118.418C152.95 119.058 154.445 119.376 155.961 119.376C157.461 119.376 158.805 119.058 160.002 118.418C161.211 117.767 162.159 116.954 162.857 115.98C163.883 114.621 164.633 113.121 165.107 111.48C165.591 109.829 165.836 107.803 165.836 105.397Z" fill="black"/>
<path d="M240.65 104.459C240.65 108.517 240.093 112.261 238.984 115.688C237.885 119.121 236.239 122.1 234.046 124.626C232.13 126.892 229.828 128.662 227.15 129.938C224.484 131.199 221.468 131.834 218.109 131.834C215.843 131.834 213.697 131.47 211.671 130.751C209.64 130.032 207.942 129.022 206.567 127.73V149.647C206.567 150.813 206.286 151.631 205.734 152.105C205.192 152.589 204.406 152.834 203.38 152.834H194.025C192.093 152.834 191.13 151.803 191.13 149.751V83.2717C191.13 81.3447 192.13 80.3759 194.13 80.3759H202.046C203.005 80.3759 203.739 80.5374 204.255 80.8551C204.765 81.1624 205.093 81.7249 205.234 82.5426L205.442 84.5009C206.817 82.9905 208.755 81.6832 211.255 80.5842C213.755 79.4905 216.343 78.9384 219.025 78.9384C222.593 78.9384 225.578 79.5426 227.984 80.7509C230.385 81.9488 232.406 83.4332 234.046 85.2092C236.307 87.6155 237.973 90.5322 239.046 93.9592C240.114 97.3915 240.65 100.892 240.65 104.459ZM224.588 105.397C224.588 103.063 224.38 101.058 223.963 99.3759C223.557 97.6988 222.973 96.3082 222.213 95.2092C221.322 93.8342 220.239 92.8759 218.963 92.3342C217.697 91.7822 216.38 91.5009 215.005 91.5009C213.505 91.5009 211.994 91.8655 210.484 92.5842C208.968 93.2926 207.661 94.1676 206.567 95.2092V116.084C207.536 116.991 208.76 117.767 210.234 118.418C211.703 119.058 213.197 119.376 214.713 119.376C216.213 119.376 217.557 119.058 218.755 118.418C219.963 117.767 220.911 116.954 221.609 115.98C222.635 114.621 223.385 113.121 223.859 111.48C224.343 109.829 224.588 107.803 224.588 105.397Z" fill="black"/>
<path d="M266.465 66.5842C266.465 67.8238 266.22 68.9176 265.736 69.8759C265.262 70.8342 264.632 71.6624 263.84 72.3551C263.049 73.0374 262.153 73.553 261.153 73.8967C260.163 74.2457 259.194 74.4176 258.236 74.4176C257.262 74.4176 256.278 74.2457 255.278 73.8967C254.288 73.553 253.403 73.053 252.611 72.3967C251.83 71.7457 251.179 70.9384 250.653 69.9801C250.137 69.0217 249.882 67.928 249.882 66.6884C249.882 64.1467 250.736 62.1988 252.444 60.8342C254.163 59.4592 256.095 58.7717 258.236 58.7717C260.288 58.7717 262.174 59.4592 263.882 60.8342C265.601 62.1988 266.465 64.1155 266.465 66.5842ZM266.049 127.522C266.049 129.511 265.054 130.501 263.069 130.501H253.799C252.7 130.501 251.892 130.303 251.382 129.897C250.866 129.48 250.611 128.688 250.611 127.522V83.0634C250.611 82.0374 250.903 81.3342 251.486 80.9592C252.069 80.5738 252.84 80.3759 253.799 80.3759H263.069C264.028 80.3759 264.762 80.553 265.278 80.8967C265.788 81.2457 266.049 81.9696 266.049 83.0634V127.522Z" fill="black"/>
<path d="M308.128 80.4167C308.889 80.4167 309.493 80.5938 309.941 80.9375C310.383 81.2865 310.607 81.8333 310.607 82.5833V88.5417C310.607 89.3073 310.383 89.8958 309.941 90.3125C309.493 90.7188 308.889 90.9167 308.128 90.9167H297.732V127.25C297.732 128.349 297.524 129.177 297.107 129.729C296.701 130.271 295.92 130.542 294.753 130.542H285.191C283.258 130.542 282.295 129.516 282.295 127.458V90.9167H277.149C275.909 90.9167 275.118 90.6979 274.774 90.25C274.441 89.8073 274.274 88.8958 274.274 87.5208V83.1042C274.274 82.3438 274.472 81.7031 274.878 81.1875C275.295 80.6771 275.883 80.4167 276.649 80.4167H282.295V77.0208C282.295 73.7292 282.618 70.7292 283.274 68.0208C283.925 65.3125 285.008 63 286.524 61.0833C288.034 59.1563 290.024 57.6615 292.482 56.6042C294.951 55.5365 297.972 55 301.545 55C303.337 55 305.378 55.224 307.67 55.6667C309.972 56.1146 311.982 56.7187 313.691 57.4792C314.441 57.8125 314.899 58.2917 315.066 58.9167C315.243 59.5313 315.196 60.625 314.92 62.2083L314.107 67.4583C313.967 68.4167 313.618 69 313.066 69.2083C312.524 69.4167 311.842 69.3854 311.024 69.1042C309.857 68.7604 308.722 68.4688 307.628 68.2292C306.529 67.9948 305.363 67.875 304.128 67.875C302.753 67.875 301.633 68.099 300.774 68.5417C299.909 68.9896 299.258 69.5729 298.816 70.2917C298.368 71 298.076 71.8542 297.941 72.8542C297.8 73.8542 297.732 74.8698 297.732 75.8958V80.4167H308.128Z" fill="black"/>
<path d="M348.777 83.3551C349.402 81.3707 350.673 80.3759 352.59 80.3759H363.194C364.079 80.3759 364.631 80.6884 364.84 81.3134C365.048 81.928 365.011 82.579 364.735 83.2717L344.36 136.168C343.194 139.251 341.886 141.834 340.444 143.918C338.996 146.011 337.329 147.73 335.444 149.063C333.553 150.407 331.36 151.376 328.86 151.959C326.36 152.543 323.428 152.834 320.069 152.834C318.902 152.834 317.829 152.777 316.86 152.668C315.902 152.569 314.907 152.418 313.881 152.209C312.923 152.011 312.36 151.626 312.194 151.043C312.027 150.459 312.006 149.751 312.131 148.918L313.069 142.438C313.204 141.407 313.465 140.772 313.84 140.522C314.215 140.282 314.642 140.168 315.131 140.168C315.673 140.168 316.319 140.214 317.069 140.313C317.829 140.423 318.866 140.48 320.173 140.48C323.256 140.48 325.548 139.964 327.048 138.938C328.558 137.907 329.767 136.261 330.673 134.001L331.902 130.813L312.86 83.4592C312.511 82.7092 312.511 82.0113 312.86 81.3551C313.204 80.704 313.824 80.3759 314.715 80.3759H326.86C328.428 80.3759 329.454 81.0634 329.944 82.4384L339.506 112.897H339.819L348.777 83.3551Z" fill="black"/>
<path fill-rule="evenodd" clip-rule="evenodd" d="M364.342 42.2857C364.079 43.1451 364.296 44.1422 364.998 45.277L379.569 68.1834C394.611 80.058 398.854 79.002 416.709 65.5916C401.188 84.3659 401.109 87.6458 415.744 107.115C398.45 92.8182 394.303 91.6297 378.534 102.967L363.319 126.802C362.702 127.747 362.571 128.679 362.925 129.584C363.273 130.496 364.053 130.948 365.26 130.948H379.115C380.584 130.948 381.745 130.712 382.604 130.24C383.477 129.768 384.218 129.053 384.835 128.088L401.156 100.878H401.287L417.371 127.826C417.962 128.79 418.67 129.551 419.497 130.109C420.317 130.673 421.419 130.948 422.803 130.948H438.888C440.095 130.948 440.947 130.496 441.459 129.584C441.984 128.679 441.905 127.708 441.223 126.671L413.094 83.5077L439.281 45.277C440.049 44.0569 440.278 43.0401 439.964 42.2332C439.662 41.4133 438.914 41 437.707 41H422.672C421.288 41 420.245 41.223 419.549 41.656C418.867 42.0758 418.224 42.758 417.634 43.7026L402.468 68.079H402.336L388.193 44.2274C387.511 43.1975 386.731 42.4038 385.858 41.8397C384.999 41.2821 383.923 41 382.631 41H366.546C365.339 41 364.604 41.4329 364.342 42.2857Z" fill="black"/>
</svg>
